<svg xmlns="http://www.w3.org/2000/svg" xmlns:xlink="http://www.w3.org/1999/xlink" width="200" zoomAndPan="magnify" viewBox="0 0 150 149.999998" height="200" preserveAspectRatio="xMidYMid meet" version="1.0"><defs><g/><clipPath id="8b9e27feb2"><path d="M 55.363281 38.234375 L 94.363281 38.234375 L 94.363281 77.234375 L 55.363281 77.234375 Z M 55.363281 38.234375 " clip-rule="nonzero"/></clipPath></defs><g clip-path="url(#8b9e27feb2)"><path fill="#e51d25" d="M 74.863281 38.234375 C 64.09375 38.234375 55.363281 46.964844 55.363281 57.734375 C 55.363281 68.503906 64.09375 77.234375 74.863281 77.234375 C 85.632812 77.234375 94.363281 68.503906 94.363281 57.734375 C 94.363281 46.964844 85.632812 38.234375 74.863281 38.234375 " fill-opacity="1" fill-rule="nonzero"/></g><g fill="#ffffff" fill-opacity="1"><g transform="translate(64.747622, 62.44916)"><g><path d="M 14.21875 -13.34375 C 11.683594 -13.839844 9.53125 -13.1875 8.078125 -12.019531 C 6.652344 -10.847656 5.648438 -8.40625 7.207031 -6.585938 C 7.425781 -6.15625 8.367188 -6.554688 8.160156 -7.046875 C 6.628906 -10.484375 10.183594 -12.90625 13.972656 -12.15625 C 16.8125 -11.585938 17.625 -9.925781 16.875 -8.214844 C 16.054688 -6.382812 13.835938 -5.878906 11.304688 -6.511719 C 11.917969 -7.722656 12.53125 -9.683594 14.011719 -10.027344 C 14.683594 -10.199219 14.507812 -10.960938 13.933594 -10.953125 C 11.078125 -10.960938 10.160156 -5.878906 7.585938 -1.855469 C 5.921875 -3.71875 2.96875 -3.925781 2.460938 -1.4375 C 2.191406 -0.117188 3.164062 0.792969 4.421875 1.027344 C 5.464844 1.199219 6.707031 0.902344 7.585938 -0.0273438 C 8.640625 1.058594 9.492188 1.898438 11.15625 2.277344 C 14.09375 2.9375 16.089844 1.777344 16.867188 -0.933594 C 17.507812 -3.140625 15.980469 -5.003906 14.371094 -5.574219 C 15.78125 -5.542969 17.648438 -6.359375 18.246094 -7.984375 C 19.125 -10.378906 17.480469 -12.714844 14.21875 -13.34375 Z M 10.847656 -5.660156 C 11.871094 -5.515625 12.527344 -5.347656 13.378906 -5.027344 C 14.832031 -4.484375 16.027344 -3.167969 15.503906 -1.207031 C 14.566406 2.226562 10.496094 1.765625 8.300781 -0.925781 C 9.414062 -2.476562 10.304688 -4.570312 10.847656 -5.660156 Z M 5.441406 -2.117188 C 5.980469 -1.949219 6.464844 -1.492188 6.921875 -0.996094 C 6.203125 -0.195312 5.601562 0.0820312 4.957031 -0.015625 C 2.675781 -0.394531 3.660156 -2.746094 5.441406 -2.117188 Z M 5.441406 -2.117188 "/></g></g></g><g fill="#e51d25" fill-opacity="1"><g transform="translate(1.099959, 104.752699)"><g><path d="M 1.375 -24.90625 C 2.125 -24.90625 2.734375 -24.894531 3.203125 -24.875 C 3.671875 -24.863281 4.078125 -24.851562 4.421875 -24.84375 C 4.773438 -24.832031 5.097656 -24.816406 5.390625 -24.796875 C 5.691406 -24.785156 6.039062 -24.78125 6.4375 -24.78125 C 6.832031 -24.78125 7.296875 -24.785156 7.828125 -24.796875 C 8.367188 -24.816406 8.90625 -24.835938 9.4375 -24.859375 C 9.96875 -24.890625 10.472656 -24.910156 10.953125 -24.921875 C 11.441406 -24.929688 11.835938 -24.9375 12.140625 -24.9375 C 13.222656 -24.9375 14.3125 -24.847656 15.40625 -24.671875 C 16.5 -24.503906 17.484375 -24.1875 18.359375 -23.71875 C 19.242188 -23.257812 19.957031 -22.644531 20.5 -21.875 C 21.050781 -21.113281 21.328125 -20.132812 21.328125 -18.9375 C 21.328125 -18.144531 21.160156 -17.429688 20.828125 -16.796875 C 20.492188 -16.171875 20.050781 -15.617188 19.5 -15.140625 C 18.957031 -14.671875 18.316406 -14.28125 17.578125 -13.96875 C 16.847656 -13.664062 16.097656 -13.453125 15.328125 -13.328125 L 15.328125 -13.25 C 16.097656 -13.195312 16.9375 -13.039062 17.84375 -12.78125 C 18.75 -12.519531 19.585938 -12.128906 20.359375 -11.609375 C 21.128906 -11.085938 21.773438 -10.429688 22.296875 -9.640625 C 22.816406 -8.847656 23.078125 -7.90625 23.078125 -6.8125 C 23.078125 -5.59375 22.835938 -4.546875 22.359375 -3.671875 C 21.890625 -2.804688 21.234375 -2.09375 20.390625 -1.53125 C 19.546875 -0.976562 18.535156 -0.570312 17.359375 -0.3125 C 16.179688 -0.0507812 14.875 0.078125 13.4375 0.078125 C 12.519531 0.078125 11.453125 0.046875 10.234375 -0.015625 C 9.015625 -0.078125 7.898438 -0.109375 6.890625 -0.109375 C 6.441406 -0.109375 6.039062 -0.101562 5.6875 -0.09375 C 5.34375 -0.0820312 4.976562 -0.0664062 4.59375 -0.046875 C 4.207031 -0.0351562 3.757812 -0.0234375 3.25 -0.015625 C 2.75 -0.00390625 2.125 0 1.375 0 L 1.375 -0.671875 C 1.769531 -0.671875 2.144531 -0.703125 2.5 -0.765625 C 2.863281 -0.828125 3.179688 -0.941406 3.453125 -1.109375 C 3.734375 -1.285156 3.953125 -1.53125 4.109375 -1.84375 C 4.273438 -2.15625 4.359375 -2.570312 4.359375 -3.09375 L 4.359375 -21.8125 C 4.359375 -22.332031 4.273438 -22.742188 4.109375 -23.046875 C 3.953125 -23.359375 3.734375 -23.601562 3.453125 -23.78125 C 3.179688 -23.957031 2.863281 -24.078125 2.5 -24.140625 C 2.144531 -24.203125 1.769531 -24.234375 1.375 -24.234375 Z M 9.640625 -4.84375 C 9.640625 -4.195312 9.671875 -3.632812 9.734375 -3.15625 C 9.796875 -2.6875 9.941406 -2.285156 10.171875 -1.953125 C 10.410156 -1.617188 10.757812 -1.367188 11.21875 -1.203125 C 11.675781 -1.046875 12.300781 -0.96875 13.09375 -0.96875 C 13.84375 -0.96875 14.488281 -1.109375 15.03125 -1.390625 C 15.582031 -1.679688 16.035156 -2.066406 16.390625 -2.546875 C 16.753906 -3.035156 17.019531 -3.597656 17.1875 -4.234375 C 17.363281 -4.878906 17.453125 -5.578125 17.453125 -6.328125 C 17.453125 -8.410156 17.007812 -9.957031 16.125 -10.96875 C 15.25 -11.988281 13.867188 -12.5 11.984375 -12.5 L 9.640625 -12.5 Z M 9.640625 -13.546875 L 11.609375 -13.546875 C 12.484375 -13.546875 13.203125 -13.703125 13.765625 -14.015625 C 14.335938 -14.328125 14.789062 -14.734375 15.125 -15.234375 C 15.457031 -15.742188 15.6875 -16.316406 15.8125 -16.953125 C 15.9375 -17.585938 16 -18.238281 16 -18.90625 C 16 -19.570312 15.910156 -20.207031 15.734375 -20.8125 C 15.566406 -21.425781 15.289062 -21.957031 14.90625 -22.40625 C 14.519531 -22.851562 14.035156 -23.210938 13.453125 -23.484375 C 12.867188 -23.753906 12.171875 -23.890625 11.359375 -23.890625 C 10.878906 -23.890625 10.472656 -23.832031 10.140625 -23.71875 C 9.804688 -23.613281 9.640625 -23.265625 9.640625 -22.671875 Z M 9.640625 -13.546875 "/></g></g></g><g fill="#e51d25" fill-opacity="1"><g transform="translate(25.695731, 104.752699)"><g><path d="M 23.78125 -8.890625 C 23.78125 -7.234375 23.5625 -5.8125 23.125 -4.625 C 22.695312 -3.445312 22.078125 -2.484375 21.265625 -1.734375 C 20.460938 -0.992188 19.492188 -0.453125 18.359375 -0.109375 C 17.234375 0.234375 15.960938 0.40625 14.546875 0.40625 C 13.359375 0.40625 12.132812 0.300781 10.875 0.09375 C 9.625 -0.113281 8.484375 -0.539062 7.453125 -1.1875 C 6.429688 -1.832031 5.597656 -2.753906 4.953125 -3.953125 C 4.304688 -5.160156 3.984375 -6.757812 3.984375 -8.75 L 3.984375 -21.8125 C 3.984375 -22.332031 3.898438 -22.742188 3.734375 -23.046875 C 3.578125 -23.359375 3.363281 -23.601562 3.09375 -23.78125 C 2.820312 -23.957031 2.503906 -24.078125 2.140625 -24.140625 C 1.773438 -24.203125 1.394531 -24.234375 1 -24.234375 L 1 -24.90625 C 1.75 -24.90625 2.363281 -24.894531 2.84375 -24.875 C 3.332031 -24.863281 3.757812 -24.84375 4.125 -24.8125 C 4.5 -24.789062 4.84375 -24.773438 5.15625 -24.765625 C 5.46875 -24.753906 5.832031 -24.75 6.25 -24.75 C 6.644531 -24.75 7.039062 -24.753906 7.4375 -24.765625 C 7.84375 -24.773438 8.28125 -24.789062 8.75 -24.8125 C 9.21875 -24.84375 9.726562 -24.863281 10.28125 -24.875 C 10.84375 -24.894531 11.5 -24.90625 12.25 -24.90625 L 12.25 -24.234375 C 11.851562 -24.234375 11.472656 -24.203125 11.109375 -24.140625 C 10.742188 -24.078125 10.425781 -23.957031 10.15625 -23.78125 C 9.882812 -23.601562 9.664062 -23.359375 9.5 -23.046875 C 9.34375 -22.742188 9.265625 -22.332031 9.265625 -21.8125 L 9.265625 -8.75 C 9.265625 -7.476562 9.363281 -6.359375 9.5625 -5.390625 C 9.757812 -4.421875 10.097656 -3.609375 10.578125 -2.953125 C 11.066406 -2.296875 11.726562 -1.796875 12.5625 -1.453125 C 13.394531 -1.109375 14.441406 -0.9375 15.703125 -0.9375 C 17.984375 -0.9375 19.71875 -1.632812 20.90625 -3.03125 C 22.101562 -4.4375 22.703125 -6.34375 22.703125 -8.75 L 22.703125 -21.8125 C 22.703125 -22.332031 22.617188 -22.742188 22.453125 -23.046875 C 22.296875 -23.359375 22.082031 -23.601562 21.8125 -23.78125 C 21.539062 -23.957031 21.222656 -24.078125 20.859375 -24.140625 C 20.503906 -24.203125 20.125 -24.234375 19.71875 -24.234375 L 19.71875 -24.90625 C 20.21875 -24.90625 20.628906 -24.894531 20.953125 -24.875 C 21.273438 -24.863281 21.5625 -24.851562 21.8125 -24.84375 C 22.0625 -24.832031 22.296875 -24.816406 22.515625 -24.796875 C 22.742188 -24.785156 22.992188 -24.78125 23.265625 -24.78125 C 23.535156 -24.78125 23.773438 -24.785156 23.984375 -24.796875 C 24.191406 -24.816406 24.421875 -24.832031 24.671875 -24.84375 C 24.921875 -24.851562 25.207031 -24.863281 25.53125 -24.875 C 25.851562 -24.894531 26.265625 -24.90625 26.765625 -24.90625 L 26.765625 -24.234375 C 26.367188 -24.234375 25.988281 -24.203125 25.625 -24.140625 C 25.257812 -24.078125 24.941406 -23.957031 24.671875 -23.78125 C 24.398438 -23.601562 24.179688 -23.359375 24.015625 -23.046875 C 23.859375 -22.742188 23.78125 -22.332031 23.78125 -21.8125 Z M 23.78125 -8.890625 "/></g></g></g><g fill="#e51d25" fill-opacity="1"><g transform="translate(53.19388, 104.752699)"><g><path d="M 6.4375 -0.671875 C 6.832031 -0.671875 7.207031 -0.703125 7.5625 -0.765625 C 7.925781 -0.828125 8.242188 -0.941406 8.515625 -1.109375 C 8.796875 -1.285156 9.015625 -1.53125 9.171875 -1.84375 C 9.335938 -2.15625 9.421875 -2.570312 9.421875 -3.09375 L 9.421875 -23.890625 C 8.179688 -23.941406 7.328125 -23.972656 6.859375 -23.984375 C 6.398438 -23.992188 6.113281 -24 6 -24 C 4.53125 -23.976562 3.421875 -23.492188 2.671875 -22.546875 C 1.929688 -21.609375 1.515625 -20.429688 1.421875 -19.015625 L 0.75 -19.015625 L 0.96875 -24.96875 C 1.539062 -25 2.09375 -25.015625 2.625 -25.015625 C 3.15625 -25.015625 3.632812 -25.015625 4.0625 -25.015625 C 5.050781 -25.015625 5.929688 -25.003906 6.703125 -24.984375 C 7.472656 -24.972656 8.164062 -24.960938 8.78125 -24.953125 C 9.40625 -24.941406 9.960938 -24.929688 10.453125 -24.921875 C 10.953125 -24.910156 11.4375 -24.90625 11.90625 -24.90625 C 12.375 -24.90625 12.863281 -24.910156 13.375 -24.921875 C 13.882812 -24.929688 14.457031 -24.941406 15.09375 -24.953125 C 15.726562 -24.960938 16.4375 -24.972656 17.21875 -24.984375 C 18 -25.003906 18.910156 -25.015625 19.953125 -25.015625 C 20.398438 -25.015625 20.894531 -25.015625 21.4375 -25.015625 C 21.976562 -25.015625 22.535156 -25 23.109375 -24.96875 L 23.375 -19.015625 L 22.703125 -19.015625 C 22.648438 -19.640625 22.523438 -20.25 22.328125 -20.84375 C 22.128906 -21.4375 21.835938 -21.96875 21.453125 -22.4375 C 21.066406 -22.914062 20.59375 -23.300781 20.03125 -23.59375 C 19.476562 -23.894531 18.832031 -24.046875 18.09375 -24.046875 C 18.019531 -24.046875 17.9375 -24.046875 17.84375 -24.046875 C 17.757812 -24.046875 17.597656 -24.035156 17.359375 -24.015625 C 17.128906 -24.003906 16.800781 -23.988281 16.375 -23.96875 C 15.957031 -23.945312 15.398438 -23.921875 14.703125 -23.890625 L 14.703125 -3.09375 C 14.703125 -2.570312 14.78125 -2.15625 14.9375 -1.84375 C 15.101562 -1.53125 15.320312 -1.285156 15.59375 -1.109375 C 15.863281 -0.941406 16.175781 -0.828125 16.53125 -0.765625 C 16.894531 -0.703125 17.273438 -0.671875 17.671875 -0.671875 L 17.671875 0 C 16.929688 0 16.296875 -0.00390625 15.765625 -0.015625 C 15.234375 -0.0234375 14.757812 -0.0390625 14.34375 -0.0625 C 13.9375 -0.09375 13.546875 -0.113281 13.171875 -0.125 C 12.796875 -0.144531 12.410156 -0.15625 12.015625 -0.15625 C 11.597656 -0.15625 11.210938 -0.144531 10.859375 -0.125 C 10.515625 -0.113281 10.140625 -0.09375 9.734375 -0.0625 C 9.328125 -0.0390625 8.863281 -0.0234375 8.34375 -0.015625 C 7.820312 -0.00390625 7.1875 0 6.4375 0 Z M 6.4375 -0.671875 "/></g></g></g><g fill="#e51d25" fill-opacity="1"><g transform="translate(77.305931, 104.752699)"><g><path d="M 15.375 0.078125 C 13.65625 0.078125 12.078125 0.046875 10.640625 -0.015625 C 9.203125 -0.078125 8.035156 -0.109375 7.140625 -0.109375 C 6.722656 -0.109375 6.328125 -0.101562 5.953125 -0.09375 C 5.578125 -0.0820312 5.171875 -0.0664062 4.734375 -0.046875 C 4.304688 -0.0351562 3.828125 -0.0234375 3.296875 -0.015625 C 2.765625 -0.00390625 2.125 0 1.375 0 L 1.375 -0.671875 C 1.769531 -0.671875 2.144531 -0.703125 2.5 -0.765625 C 2.863281 -0.828125 3.179688 -0.941406 3.453125 -1.109375 C 3.734375 -1.285156 3.953125 -1.53125 4.109375 -1.84375 C 4.273438 -2.15625 4.359375 -2.570312 4.359375 -3.09375 L 4.359375 -21.8125 C 4.359375 -22.332031 4.273438 -22.742188 4.109375 -23.046875 C 3.953125 -23.359375 3.734375 -23.601562 3.453125 -23.78125 C 3.179688 -23.957031 2.863281 -24.078125 2.5 -24.140625 C 2.144531 -24.203125 1.769531 -24.234375 1.375 -24.234375 L 1.375 -24.90625 C 2.125 -24.90625 2.757812 -24.894531 3.28125 -24.875 C 3.800781 -24.863281 4.269531 -24.84375 4.6875 -24.8125 C 5.113281 -24.789062 5.5 -24.773438 5.84375 -24.765625 C 6.1875 -24.753906 6.570312 -24.75 7 -24.75 C 7.394531 -24.75 7.769531 -24.753906 8.125 -24.765625 C 8.488281 -24.773438 8.878906 -24.789062 9.296875 -24.8125 C 9.722656 -24.84375 10.195312 -24.863281 10.71875 -24.875 C 11.238281 -24.894531 11.867188 -24.90625 12.609375 -24.90625 L 12.609375 -24.234375 C 12.210938 -24.234375 11.832031 -24.203125 11.46875 -24.140625 C 11.113281 -24.078125 10.800781 -23.957031 10.53125 -23.78125 C 10.257812 -23.601562 10.039062 -23.359375 9.875 -23.046875 C 9.71875 -22.742188 9.640625 -22.332031 9.640625 -21.8125 L 9.640625 -4.203125 C 9.640625 -3.429688 9.753906 -2.828125 9.984375 -2.390625 C 10.222656 -1.960938 10.566406 -1.632812 11.015625 -1.40625 C 11.460938 -1.1875 12 -1.050781 12.625 -1 C 13.257812 -0.957031 13.976562 -0.9375 14.78125 -0.9375 C 16.59375 -0.9375 18.019531 -1.304688 19.0625 -2.046875 C 20.101562 -2.785156 20.757812 -4.140625 21.03125 -6.109375 L 21.703125 -6.109375 L 21.328125 0 C 20.378906 0.0195312 19.382812 0.0351562 18.34375 0.046875 C 17.300781 0.0664062 16.3125 0.078125 15.375 0.078125 Z M 15.375 0.078125 "/></g></g></g><g fill="#e51d25" fill-opacity="1"><g transform="translate(99.557476, 104.752699)"><g><path d="M 11.796875 -13.4375 C 12.910156 -13.4375 13.707031 -13.71875 14.1875 -14.28125 C 14.675781 -14.851562 14.921875 -15.648438 14.921875 -16.671875 L 15.59375 -16.671875 C 15.59375 -16.097656 15.585938 -15.613281 15.578125 -15.21875 C 15.566406 -14.820312 15.550781 -14.476562 15.53125 -14.1875 C 15.519531 -13.90625 15.507812 -13.664062 15.5 -13.46875 C 15.488281 -13.269531 15.484375 -13.070312 15.484375 -12.875 C 15.484375 -12.675781 15.488281 -12.484375 15.5 -12.296875 C 15.507812 -12.109375 15.519531 -11.878906 15.53125 -11.609375 C 15.550781 -11.335938 15.566406 -11.007812 15.578125 -10.625 C 15.585938 -10.238281 15.59375 -9.757812 15.59375 -9.1875 L 14.921875 -9.1875 C 14.921875 -10.15625 14.675781 -10.925781 14.1875 -11.5 C 13.707031 -12.070312 12.910156 -12.359375 11.796875 -12.359375 L 9.640625 -12.359375 L 9.640625 -4.875 C 9.640625 -3.976562 9.703125 -3.265625 9.828125 -2.734375 C 9.953125 -2.203125 10.191406 -1.804688 10.546875 -1.546875 C 10.910156 -1.285156 11.40625 -1.117188 12.03125 -1.046875 C 12.664062 -0.972656 13.492188 -0.9375 14.515625 -0.9375 C 15.410156 -0.9375 16.234375 -0.988281 16.984375 -1.09375 C 17.742188 -1.207031 18.414062 -1.4375 19 -1.78125 C 19.582031 -2.132812 20.054688 -2.640625 20.421875 -3.296875 C 20.796875 -3.953125 21.035156 -4.828125 21.140625 -5.921875 L 21.84375 -5.921875 L 21.546875 0 C 20.429688 0.0195312 19.414062 0.0351562 18.5 0.046875 C 17.582031 0.0664062 16.613281 0.078125 15.59375 0.078125 C 13.488281 0.078125 11.726562 0.046875 10.3125 -0.015625 C 8.894531 -0.078125 7.789062 -0.109375 7 -0.109375 C 6.601562 -0.109375 6.222656 -0.101562 5.859375 -0.09375 C 5.503906 -0.0820312 5.117188 -0.0664062 4.703125 -0.046875 C 4.296875 -0.0351562 3.828125 -0.0234375 3.296875 -0.015625 C 2.765625 -0.00390625 2.125 0 1.375 0 L 1.375 -0.671875 C 1.769531 -0.671875 2.144531 -0.703125 2.5 -0.765625 C 2.863281 -0.828125 3.179688 -0.941406 3.453125 -1.109375 C 3.734375 -1.285156 3.953125 -1.53125 4.109375 -1.84375 C 4.273438 -2.15625 4.359375 -2.570312 4.359375 -3.09375 L 4.359375 -21.8125 C 4.359375 -22.332031 4.273438 -22.742188 4.109375 -23.046875 C 3.953125 -23.359375 3.734375 -23.601562 3.453125 -23.78125 C 3.179688 -23.957031 2.863281 -24.078125 2.5 -24.140625 C 2.144531 -24.203125 1.769531 -24.234375 1.375 -24.234375 L 1.375 -24.90625 C 2.125 -24.90625 2.757812 -24.894531 3.28125 -24.875 C 3.800781 -24.863281 4.257812 -24.851562 4.65625 -24.84375 C 5.050781 -24.832031 5.421875 -24.816406 5.765625 -24.796875 C 6.117188 -24.785156 6.492188 -24.78125 6.890625 -24.78125 C 7.734375 -24.78125 8.816406 -24.816406 10.140625 -24.890625 C 11.472656 -24.972656 12.878906 -25.015625 14.359375 -25.015625 C 15.328125 -25.015625 16.226562 -25 17.0625 -24.96875 C 17.894531 -24.945312 18.804688 -24.925781 19.796875 -24.90625 L 20.03125 -19.359375 L 19.359375 -19.359375 C 19.273438 -20.296875 19.078125 -21.066406 18.765625 -21.671875 C 18.460938 -22.285156 18.050781 -22.765625 17.53125 -23.109375 C 17.007812 -23.460938 16.394531 -23.695312 15.6875 -23.8125 C 14.976562 -23.9375 14.191406 -24 13.328125 -24 C 12.898438 -24 12.40625 -23.976562 11.84375 -23.9375 C 11.289062 -23.90625 10.84375 -23.863281 10.5 -23.8125 C 9.925781 -23.738281 9.640625 -23.40625 9.640625 -22.8125 L 9.640625 -13.4375 Z M 11.796875 -13.4375 "/></g></g></g><g fill="#e51d25" fill-opacity="1"><g transform="translate(122.329961, 104.752699)"><g><path d="M 1.375 -24.90625 C 2.125 -24.90625 2.769531 -24.894531 3.3125 -24.875 C 3.851562 -24.863281 4.34375 -24.859375 4.78125 -24.859375 C 5.21875 -24.859375 5.613281 -24.851562 5.96875 -24.84375 C 6.332031 -24.832031 6.710938 -24.828125 7.109375 -24.828125 C 7.753906 -24.828125 8.566406 -24.859375 9.546875 -24.921875 C 10.523438 -24.984375 11.535156 -25.015625 12.578125 -25.015625 C 13.546875 -25.015625 14.578125 -24.9375 15.671875 -24.78125 C 16.765625 -24.632812 17.773438 -24.335938 18.703125 -23.890625 C 19.628906 -23.441406 20.394531 -22.800781 21 -21.96875 C 21.613281 -21.144531 21.921875 -20.050781 21.921875 -18.6875 C 21.921875 -17.8125 21.753906 -17.015625 21.421875 -16.296875 C 21.085938 -15.578125 20.640625 -14.953125 20.078125 -14.421875 C 19.515625 -13.890625 18.863281 -13.460938 18.125 -13.140625 C 17.382812 -12.816406 16.59375 -12.601562 15.75 -12.5 C 16.164062 -11.957031 16.691406 -11.273438 17.328125 -10.453125 C 17.960938 -9.640625 18.628906 -8.78125 19.328125 -7.875 C 20.035156 -6.96875 20.757812 -6.046875 21.5 -5.109375 C 22.25 -4.179688 22.960938 -3.332031 23.640625 -2.5625 C 24.203125 -1.914062 24.738281 -1.4375 25.25 -1.125 C 25.757812 -0.820312 26.328125 -0.671875 26.953125 -0.671875 L 26.953125 0 C 26.398438 0 25.945312 -0.00390625 25.59375 -0.015625 C 25.25 -0.0234375 24.945312 -0.0351562 24.6875 -0.046875 C 24.425781 -0.0664062 24.191406 -0.0820312 23.984375 -0.09375 C 23.773438 -0.101562 23.519531 -0.109375 23.21875 -0.109375 C 22.601562 -0.109375 21.972656 -0.0859375 21.328125 -0.046875 C 20.679688 -0.015625 20 0 19.28125 0 C 18.507812 -0.96875 17.816406 -1.875 17.203125 -2.71875 C 16.597656 -3.5625 16.003906 -4.382812 15.421875 -5.1875 C 14.835938 -6 14.25 -6.816406 13.65625 -7.640625 C 13.0625 -8.472656 12.394531 -9.363281 11.65625 -10.3125 C 11.28125 -10.78125 10.976562 -11.085938 10.75 -11.234375 C 10.53125 -11.390625 10.207031 -11.46875 9.78125 -11.46875 L 9.640625 -11.46875 L 9.640625 -3.09375 C 9.640625 -2.570312 9.71875 -2.15625 9.875 -1.84375 C 10.039062 -1.53125 10.257812 -1.285156 10.53125 -1.109375 C 10.800781 -0.941406 11.113281 -0.828125 11.46875 -0.765625 C 11.832031 -0.703125 12.210938 -0.671875 12.609375 -0.671875 L 12.609375 0 C 11.867188 0 11.242188 -0.00390625 10.734375 -0.015625 C 10.222656 -0.0234375 9.773438 -0.0390625 9.390625 -0.0625 C 9.015625 -0.09375 8.648438 -0.113281 8.296875 -0.125 C 7.953125 -0.144531 7.582031 -0.15625 7.1875 -0.15625 C 6.757812 -0.15625 6.359375 -0.144531 5.984375 -0.125 C 5.617188 -0.113281 5.21875 -0.09375 4.78125 -0.0625 C 4.34375 -0.0390625 3.851562 -0.0234375 3.3125 -0.015625 C 2.769531 -0.00390625 2.125 0 1.375 0 L 1.375 -0.671875 C 1.769531 -0.671875 2.144531 -0.703125 2.5 -0.765625 C 2.863281 -0.828125 3.179688 -0.941406 3.453125 -1.109375 C 3.734375 -1.285156 3.953125 -1.53125 4.109375 -1.84375 C 4.273438 -2.15625 4.359375 -2.570312 4.359375 -3.09375 L 4.359375 -21.8125 C 4.359375 -22.332031 4.273438 -22.742188 4.109375 -23.046875 C 3.953125 -23.359375 3.734375 -23.601562 3.453125 -23.78125 C 3.179688 -23.957031 2.863281 -24.078125 2.5 -24.140625 C 2.144531 -24.203125 1.769531 -24.234375 1.375 -24.234375 Z M 9.640625 -12.5 L 11.3125 -12.5 C 12.257812 -12.5 13.046875 -12.648438 13.671875 -12.953125 C 14.304688 -13.253906 14.8125 -13.675781 15.1875 -14.21875 C 15.5625 -14.757812 15.828125 -15.414062 15.984375 -16.1875 C 16.148438 -16.957031 16.234375 -17.816406 16.234375 -18.765625 C 16.234375 -19.429688 16.144531 -20.070312 15.96875 -20.6875 C 15.789062 -21.3125 15.519531 -21.863281 15.15625 -22.34375 C 14.800781 -22.832031 14.34375 -23.222656 13.78125 -23.515625 C 13.226562 -23.816406 12.554688 -23.96875 11.765625 -23.96875 C 11.566406 -23.96875 11.34375 -23.960938 11.09375 -23.953125 C 10.84375 -23.941406 10.613281 -23.882812 10.40625 -23.78125 C 10.195312 -23.6875 10.015625 -23.546875 9.859375 -23.359375 C 9.710938 -23.171875 9.640625 -22.914062 9.640625 -22.59375 Z M 9.640625 -12.5 "/></g></g></g></svg>